<svg id="Layer_1" data-name="Layer 1" xmlns="http://www.w3.org/2000/svg" viewBox="0 0 1187.37 1278.81"><defs><style>.cls-1{fill:#ffd620;}</style></defs><path class="cls-1" d="M645.5,1.1c-12.3,1.3-31.7,5.6-45,10.1-28.7,9.6-61.4,28.7-81.8,47.7l-6.6,6.2-.7-3.5a188.15,188.15,0,0,1-.3-19.1c.2-8.5.2-15.5,0-15.5-1.7,0-21.8,11.7-32.1,18.5-41.9,28.2-74.9,67.6-98.6,118.1-9.9,21.1-19.7,49.9-23.7,69.9l-1.4,7-36.5-.3-36.6-.2-45.3,39.6-45.4,39.5-2.9,9.8-2.9,9.8L161.6,350c-40.2,18.9-111.1,54.4-128.4,64.2-13.7,7.8-16.7,10-19.3,13.8A77.9,77.9,0,0,0,3.3,450.7C1,458.4.7,461.3.6,474L.5,488.5,27,539.4c17.8,34.2,27.2,51.1,28.5,51.7,1.1.4,10.8,1.5,21.5,2.4,43.4,3.8,122.1,11.3,122.5,11.7s1.6,5.8,2.9,12.4,2.8,13.2,3.1,14.6l.7,2.6-64.1-.5-64.2-.6,1.2,2.9c4,10.5,19.9,56.6,19.9,57.8,0,.8-4.5,14.1-10.1,29.6s-10,28.3-9.8,28.4,11.8,1.1,25.8,2,25.6,1.7,25.7,1.9,4.1,12.3,8.9,27.2,8.9,27.2,9.1,27.4,5.4-4.2,11.6-9.8,11.6-10.1,12-10.1,7.7,9.7,16.3,21.6c12.9,17.7,16,21.3,17,20.2.7-.7,12.9-14.9,27.2-31.4l26-30.2-.5-5.1-.5-5.1h28.8l55.8-57.6c30.6-31.7,55.7-58.1,55.7-58.7s-3.8-16.4-8.4-35l-8.3-33.8,3.1-1.3c1.7-.7,11-4.1,20.7-7.6l17.6-6.3,10.8-36.8c5.9-20.2,10.5-37.6,10.3-38.6s-10.1-23.3-21.7-49.6-21.1-48-20.9-48.2c1.7-1.4,46.1-26.6,46.3-26.3s-2,9.8-5,21.3L437,403.4l20.6,45.9,20.5,45.8-16.3,44.7-16.3,44.7-14,5.2c-7.7,2.8-14.4,5.3-14.9,5.5s2.4,13.6,6.4,29.7c6.1,24.5,7.1,29.7,6.1,31.3-.7,1.1-31.6,35.2-68.8,75.9-65.8,72.1-67.6,73.9-70.7,73.4-1.7-.3-6-1-9.6-1.5l-6.5-1-4.4,4.7c-13.7,14.9-41.3,51.8-55.3,73.9-39.7,62.6-62.5,122.7-71.3,187.4-2.2,16.2-3,54.2-1.6,72.5,3.7,45.4,17,91.6,36.8,127.1,5.7,10.2,7.3,12.1,7.3,8.6,0-3.3,7.8-32.6,11.8-44.3,17.3-50.6,47.7-99.2,86.7-138.6l15-15.1-4.8-7.4a190.8,190.8,0,0,1-24.7-57.6c-5.2-21.2-6.5-32.3-6.4-58.2,0-23.1.7-31.5,4.1-49.5l1.7-9,2.7,13.5a411.41,411.41,0,0,0,63,151c9.4,13.8,23.8,32.2,24.9,31.8,1.3-.5,67-79.7,67-80.8,0-.5-2.6-4.5-5.8-8.9-24.9-33.5-43.2-74.8-50.8-115-2.1-10.6-2.7-17.6-3.1-32.1l-.4-18.5,7.6,17.5c39.5,91.6,87.6,158.5,139.6,194.3,8.9,6.2,28.1,16.2,32.2,16.9,1.5.3,4.4-6.5,17.7-40.7,8.8-22.5,16-41.4,16-42s-2.1-2.9-4.7-5c-19.2-16-47.5-45.1-64.1-65.9-28.2-35.2-48.5-72.7-56.7-105.1-2.3-9.3-5-27.4-4.1-28.2.2-.3,3.4,5.5,7,12.8A402.3,402.3,0,0,0,611.8,960.3c37.7,22.3,82.9,40.1,123.2,48.2,14.9,3.1,18,3.2,18,.7,0-1.1,2.5-25,5.5-53.3s5.3-51.4,5.2-51.5-4-2.1-8.6-4.4c-23.5-11.7-61.1-33.7-84.3-49.3-33.9-22.7-56.3-41-81.9-66.6-19.7-19.8-31-33.1-42.2-50.1-6.1-9.2-17.7-31.2-17.7-33.5,0-.5,7.3,6.3,16.3,15.1,48.5,47.7,96.9,84.9,153.2,117.9,66.6,39.1,145.3,68.5,208.5,78,13.7,2.1,13.4,2.1,11.6-1.3-2.4-4.7-6.5-23.1-8-36.2-2.6-21.6-3.7-38.6-4.3-68.2-.5-25.1-.8-28.8-2.2-29.3-.9-.2-7.2-1.6-14.1-3-111.1-23.1-207.7-63-273.1-112.6-20.6-15.7-40.1-34.6-53.6-51.9-5.5-7.1-12.7-18-11.8-18,.3,0,5.8,4.2,12.3,9.3C656.6,674,756.9,717,878,734.9c34.3,5.1,65.5,7.9,133.5,12.1,89.6,5.5,124.7,10.6,161,23,17.2,6,15.7,5.7,15,2.4-1.3-6-11.8-25.3-19.4-35.4-18.7-25.1-52.8-59.4-89.2-89.8l-8.6-7.2h-20.9c-25.4,0-80.2-1.6-105.4-3-132.6-7.5-258.4-31.7-319.5-61.5-11.5-5.6-21.3-12-20.2-13.1.2-.2,3,.8,6.3,2.2,24.3,10.8,58.7,19.7,97.9,25.3,53.6,7.7,82.5,9,222.4,10.1,134.7,1,164.4,2.1,202.9,7.1,18.2,2.3,32.5,5,44.5,8.3,4.8,1.3,8.7,2.1,8.7,1.7s-4.1-8.1-9.1-17.2c-16.9-30.5-36.5-58.3-56.7-80.5-12.9-14.1-21.8-22.3-36.8-33.5-18.7-14-29.4-18.8-51.9-23.4-25.3-5.1-38.7-6-95-6-50.3,0-64.6.5-113.5,4.1-49.9,3.6-123.1,11.2-182,18.9-8.4,1.1,32.5-11.1,61.5-18.4,119.9-29.9,256.9-37.5,390.5-21.5,24.2,2.8,70.2,10.4,79.8,13,1.4.4,2.2.2,2.2-.7,0-2.4-11.2-29.4-17.2-41.3-13.3-26.5-27.1-46.1-47.1-66.5-37.8-38.6-85.2-61.3-145.7-69.7-17.7-2.5-60.6-2.5-77.9,0-6.9.9-12.8,1.9-13.3,2.2s-.8.2-.8-.3c0-1.2,5.7-4.8,12.2-7.8,7.3-3.3,24.3-7.1,38.2-8.4,6-.6,22.9-1.1,37.5-1.1a507.17,507.17,0,0,1,61.9,3.1l11.2,1.1,28.5-15.8c15.7-8.7,28.5-16.1,28.5-16.5,0-1.5-20.7-17.8-33.7-26.5-50.6-34.2-114.4-53.6-192.3-58.5-17.5-1.1-54.6-.6-59.7.7-3.2.9-2.9-.8.5-2.8,9.8-5.8,45-11.8,86.2-14.8l15.5-1.2,28.3-16.5C952.3,102.1,965,94.4,965,94c0-1.2-20.7-8.2-35.5-12-52.4-13.4-121.6-13.1-190.2,1-8.1,1.6-14.8,2.8-15,2.7-1-1.1,3.9-5.3,9.7-8.2,8.9-4.5,23.2-8.7,44.6-13L796,60.9l14-10.7c7.6-5.8,13.7-10.8,13.5-11-.8-.8-15.6-4.2-26-5.9-13.8-2.3-66.6-2.6-83.5-.5-27.9,3.5-59.9,9.1-72.2,12.8-4.6,1.4-.3-9.5,8.6-21.8,2.5-3.5,7.9-10.2,12-15.1L670,0l-8.2.1C657.2.2,649.9.6,645.5,1.1ZM540.6,156.8c1.9,1.3,3.1,4.5,4.9,13.1,3.6,18,4.7,27.4,5.2,47.6.8,31.3-1.7,50.5-9.9,75-4.2,12.8-13.6,32-19.3,39.7L518,337H501.5c-15.1,0-18.6-.6-15.5-2.5,2-1.2,9.2-16.8,12.5-26.9,4.2-12.8,7.9-30.8,10.4-50.6,1.7-13.3,4.1-39.6,4.1-45.3,0-1.3-6.8,2.8-26.2,16-58,39.3-52.4,35.8-55.2,33.9-3.2-2-3.3-5.4-.6-11.3,11.7-26,69.4-81.6,95.6-92.2C531.6,156.1,538.6,155.4,540.6,156.8ZM273.8,352.7C250.5,380,215.6,419,215,418.3c-3.9-4-29.8-38.9-29.2-39.4.4-.4,15.1-5,32.7-10.3s37.4-11.5,44-13.6,12.2-3.9,12.4-3.9S274.6,351.8,273.8,352.7ZM77,466.4c0,.4-21,55.2-23.2,60.6-1,2.3-2.2.2-13.3-22.5-6.8-13.8-12.2-25.1-12.2-25.2.2-.2,47-13.1,48-13.2C76.7,466,77,466.2,77,466.4Z" transform="translate(-0.5 0)"/></svg>